REM DIRINDEX 1\2,1\3
REM DIRNAME cjc052,folder01,folder02
TITLE ""
FILE "Disk1Track74.mp3" MP3
  TRACK 01 AUDIO
    TITLE "2:cjc052_0522"
    INDEX 01 00:00:00
  TRACK 02 AUDIO
    TITLE "2:cjc052_0523"
    INDEX 01 00:10:43
  TRACK 03 AUDIO
    TITLE "2:cjc052_0524"
    INDEX 01 00:21:25
  TRACK 04 AUDIO
    TITLE "2:cjc052_0525"
    INDEX 01 00:32:52
  TRACK 05 AUDIO
    TITLE "2:cjc052_0526"
    INDEX 01 00:41:08
  TRACK 06 AUDIO
    TITLE "0:"
    INDEX 01 00:52:24
